<?xml version="1.0" encoding="iso-8859-1"?>
<!-- Generator: Adobe Illustrator 19.0.0, SVG Export Plug-In . SVG Version: 6.00 Build 0)  -->
<svg version="1.1" id="Layer_1" xmlns="http://www.w3.org/2000/svg" xmlns:xlink="http://www.w3.org/1999/xlink" x="0px" y="0px"
	 viewBox="0 0 512 512" style="enable-background:new 0 0 512 512;" xml:space="preserve">
<path style="fill:#F4661E;" d="M328.826,82.857c-8.04-2.918-16.714-4.49-25.806-4.49c-17.663,0-33.959,5.959-47.02,15.776
	c-13.061-9.817-29.367-15.776-47.02-15.776c-13.164,0-25.602,3.244-36.469,9.092c0.735-42.633,35.428-77.01,78.265-77.01
	C292.051,10.449,325.796,42.316,328.826,82.857z"/>
<path style="fill:#E6E7E8;" d="M287.347,156.735c0,0.52-0.102,0.938-0.102,1.357c-0.214,14.949-4.704,28.735-12.123,40.439H142.735
	c-7.633-12.123-12.123-26.429-12.123-41.796c0-30.092,16.928-56.214,41.898-69.276c10.867-5.847,23.305-9.092,36.469-9.092
	c17.654,0,33.959,5.959,47.02,15.776C275.02,108.459,287.347,131.133,287.347,156.735z"/>
<path style="fill:#31C0D8;" d="M381.388,156.735c0,15.367-4.49,29.673-12.123,41.796h-94.143
	c7.419-11.704,11.908-25.49,12.123-40.439c0-0.418,0.102-0.837,0.102-1.357c0-25.602-12.327-48.275-31.347-62.591
	c13.061-9.817,29.357-15.776,47.02-15.776c9.092,0,17.765,1.572,25.806,4.49C359.449,93.52,381.388,122.572,381.388,156.735z"/>
<g>
	<polygon style="fill:#FFBE48;" points="256,501.551 188.082,501.551 177.939,423.5 	"/>
	<polygon style="fill:#FFBE48;" points="340.215,376.266 328.725,464.562 161.959,297.796 161.541,297.898 156.735,261.224 
		224.653,261.224 339.592,376.163 	"/>
</g>
<g>
	<polygon style="fill:#FFD248;" points="224.653,261.224 156.735,261.224 120.163,261.224 120.163,198.531 142.735,198.531 
		275.123,198.531 369.265,198.531 391.837,198.531 391.837,261.224 355.265,261.224 340.215,376.266 339.592,376.163 	"/>
	<polygon style="fill:#FFD248;" points="328.725,464.562 323.918,501.551 256,501.551 177.939,423.5 161.541,297.898 
		161.959,297.796 	"/>
</g>
<g>
	<path style="fill:#231F20;" d="M391.837,188.082h-5.761c3.788-9.994,5.761-20.598,5.761-31.347
		c0-35.447-21.187-67.326-53.362-81.31c-2.976-19.741-12.474-37.875-27.204-51.615C294.81,8.455,273.325,0,250.775,0
		c-23.454,0-45.564,9.066-62.257,25.527c-15.202,14.99-24.33,34.571-26.12,55.662c-26.198,16.048-42.235,44.465-42.235,75.546
		c0,10.749,1.973,21.352,5.761,31.347h-5.761c-5.77,0-10.449,4.678-10.449,10.449v62.694c0,5.771,4.679,10.449,10.449,10.449h27.402
		l3.614,27.578l16.397,125.596l10.143,78.051c0.676,5.207,5.113,9.102,10.362,9.102h135.837c5.25,0,9.686-3.895,10.362-9.103
		l16.294-125.277l13.862-105.946h27.4c5.77,0,10.449-4.678,10.449-10.449v-62.694C402.286,192.76,397.607,188.082,391.837,188.082z
		 M325.393,92.718l-0.002,0.006c27.244,9.488,45.548,35.211,45.548,64.01c0,10.91-2.652,21.641-7.712,31.347H291.98
		c3.583-9.433,5.528-19.418,5.707-29.537c0.045-0.397,0.108-1.034,0.108-1.81c0-23.095-8.752-44.671-24.4-61.058
		c9.197-4.508,19.246-6.861,29.626-6.861c7.696,0,15.178,1.3,22.241,3.863C325.304,92.695,325.349,92.703,325.393,92.718z
		 M203.191,40.407c12.758-12.581,29.657-19.509,47.585-19.509c17.24,0,33.662,6.462,46.24,18.194
		c8.796,8.203,15.161,18.451,18.613,29.733c-4.145-0.603-8.354-0.906-12.608-0.906c-16.774,0-32.882,4.662-47.02,13.549
		c-14.139-8.887-30.247-13.549-47.02-13.549c-8.058,0-16.054,1.1-23.723,3.235C188.346,59.589,194.465,49.011,203.191,40.407z
		 M177.353,96.719l-0.003-0.006c0.036-0.02,0.074-0.031,0.111-0.051c9.539-5.133,20.438-7.845,31.519-7.845
		c14.747,0,28.836,4.73,40.743,13.68c0.001,0,0.001,0.001,0.001,0.001c17.184,12.939,27.076,32.575,27.174,53.92
		c-0.039,0.351-0.095,0.905-0.101,1.57c-0.157,10.47-2.81,20.765-7.704,30.095H148.774c-5.06-9.706-7.712-20.437-7.712-31.347
		C141.061,131.424,154.968,108.428,177.353,96.719z M220.324,271.673l108.805,108.805l-8.025,61.686L171.36,292.42l-2.719-20.746
		H220.324z M192.256,452.591l38.516,38.511H197.26L192.256,452.591z M260.328,491.102l-72.488-72.478l-12.038-92.207
		l141.901,141.901l-2.964,22.784H260.328z M381.388,250.775h-26.122c-5.247,0-9.68,3.891-10.36,9.094l-12.36,94.469l-82.665-82.665
		h74.038v-20.898H156.735h-26.122V208.98h12.123h132.387h94.143h12.122V250.775z"/>
	<rect x="161.959" y="135.837" style="fill:#231F20;" width="20.898" height="20.898"/>
	<rect x="203.755" y="104.49" style="fill:#231F20;" width="20.898" height="20.898"/>
	<rect x="224.653" y="146.286" style="fill:#231F20;" width="20.898" height="20.898"/>
	<rect x="329.143" y="146.286" style="fill:#231F20;" width="20.898" height="20.898"/>
	<rect x="308.245" y="104.49" style="fill:#231F20;" width="20.898" height="20.898"/>
	<rect x="224.653" y="36.571" style="fill:#231F20;" width="20.898" height="20.898"/>
	<rect x="261.224" y="36.571" style="fill:#231F20;" width="20.898" height="20.898"/>
</g>
<g>
</g>
<g>
</g>
<g>
</g>
<g>
</g>
<g>
</g>
<g>
</g>
<g>
</g>
<g>
</g>
<g>
</g>
<g>
</g>
<g>
</g>
<g>
</g>
<g>
</g>
<g>
</g>
<g>
</g>
</svg>
